<?xml version="1.0" standalone="no"?>
<!DOCTYPE svg PUBLIC "-//W3C//DTD SVG 20010904//EN"
 "http://www.w3.org/TR/2001/REC-SVG-20010904/DTD/svg10.dtd">
<svg version="1.0" xmlns="http://www.w3.org/2000/svg"
 width="512.000000pt" height="512.000000pt" viewBox="0 0 512.000000 512.000000"
 preserveAspectRatio="xMidYMid meet">
<metadata>
Created by potrace 1.14, written by Peter Selinger 2001-2017
</metadata>
<g transform="translate(0.000000,512.000000) scale(0.100000,-0.100000)"
fill="#000000" stroke="none">
<path d="M1750 4942 c-46 -25 -70 -60 -77 -110 -8 -62 2 -87 67 -152 64 -67
84 -109 84 -185 0 -72 -27 -118 -105 -181 -142 -115 -208 -248 -209 -419 0
-135 49 -253 145 -350 73 -73 123 -99 177 -92 143 19 181 188 62 277 -81 62
-106 170 -60 263 15 31 40 62 61 76 105 71 197 205 221 323 23 112 1 261 -54
362 -33 60 -111 147 -157 176 -49 30 -112 35 -155 12z"/>
<path d="M2523 4949 c-44 -13 -91 -63 -99 -104 -11 -63 3 -103 57 -155 87 -84
113 -188 72 -281 -19 -43 -33 -57 -117 -123 -57 -45 -122 -143 -151 -229 -68
-203 1 -430 170 -558 57 -43 97 -55 151 -45 42 8 92 60 105 110 16 60 -1 102
-70 171 -43 44 -62 73 -71 105 -24 88 9 184 78 230 60 41 136 124 170 188 125
235 40 558 -180 680 -44 24 -64 26 -115 11z"/>
<path d="M3250 4942 c-46 -25 -70 -60 -77 -110 -8 -63 4 -91 66 -153 119 -117
117 -256 -6 -354 -157 -125 -225 -257 -222 -435 2 -143 50 -252 155 -358 84
-83 142 -99 220 -61 98 47 107 182 16 253 -89 70 -117 169 -72 261 24 50 34
62 90 105 55 43 120 111 120 126 0 6 6 17 14 23 14 12 52 106 61 151 33 164
-15 343 -126 464 -89 97 -168 126 -239 88z"/>
<path d="M2379 2857 c-2 -3 -53 -7 -114 -11 -60 -4 -123 -8 -140 -11 -16 -2
-52 -6 -80 -9 -27 -3 -60 -8 -71 -10 -12 -2 -39 -7 -60 -11 -370 -58 -793
-211 -1103 -397 -70 -43 -260 -178 -298 -212 -88 -81 -198 -199 -253 -271 -66
-88 -160 -246 -160 -269 0 -7 -4 -16 -9 -21 -18 -20 -65 -177 -78 -261 -9 -63
-10 -254 -1 -319 28 -199 143 -393 308 -520 32 -25 63 -45 69 -45 6 0 11 -4
11 -8 0 -26 369 -177 482 -197 16 -3 56 -12 90 -20 81 -18 228 -43 298 -50 30
-4 66 -8 80 -10 14 -3 61 -7 105 -11 44 -3 96 -8 115 -10 258 -26 1846 -26
2010 0 14 3 61 7 105 11 44 3 109 10 145 15 36 5 88 12 115 15 149 19 428 90
562 144 285 113 489 309 567 543 14 42 31 112 37 155 15 105 5 298 -21 397
-118 458 -518 859 -1115 1115 -72 31 -101 43 -190 75 -242 87 -533 155 -776
181 -30 4 -67 8 -84 11 -37 6 -539 16 -546 11z"/>
</g>
</svg>
